<?xml version="1.0" encoding="UTF-8"?><svg id="Layer_1" xmlns="http://www.w3.org/2000/svg" viewBox="0 0 147.33 28.3"><polygon points="5.18 14.69 8.36 11.52 11.49 14.64 11.49 14.64 11.54 14.69 8.36 17.87 5.18 14.69"/><path d="M8.36,24.6l3.7,3.7H3c-1.66,0-3-1.34-3-3v-5.43l1.82-1.81,3.18,3.18,3.37,3.37Z"/><path d="M1.82,11.32l-1.82-1.82V3C0,1.34,1.34,0,3,0h10.14l-4.78,4.78h0s-.5-.5-.5-.5l-3.13-3.13-3.37,3.37,3.13,3.13h0l.5.5h0s-3.18,3.18-3.18,3.18Z"/><polygon points="17.5 20.66 25.14 28.3 18.79 28.3 11.72 21.23 14.9 18.05 17.5 20.66"/><polygon points="11.72 8.15 19.87 0 26.23 0 24.16 2.06 14.9 11.32 11.95 8.38 11.72 8.15 11.72 8.15"/><polygon points="28.3 4.66 28.3 24.72 20.87 17.29 18.27 14.69 28.3 4.66"/><path d="M33.43,24.84V4.72h1.76v12.07l-.51-.24,10.59-11.83h2.27l-8.15,9.15.08-1.24,8.61,12.21h-2.13l-7.26-10.23-3.48,3.94v6.29h-1.76Z"/><path d="M57.57,25.16c-1.39,0-2.68-.26-3.89-.77-1.21-.51-2.26-1.23-3.17-2.16-.91-.93-1.62-2.03-2.13-3.29-.51-1.27-.77-2.66-.77-4.17s.26-2.92.77-4.19c.51-1.26,1.23-2.35,2.15-3.28.92-.93,1.98-1.64,3.17-2.15,1.2-.5,2.49-.76,3.88-.76s2.66.25,3.86.76c1.21.5,2.26,1.22,3.17,2.15.91.93,1.62,2.03,2.15,3.29.52,1.27.78,2.66.78,4.17s-.26,2.9-.78,4.17c-.52,1.27-1.24,2.37-2.15,3.29-.91.93-1.97,1.65-3.17,2.16-1.21.51-2.49.77-3.86.77ZM57.57,23.49c1.21,0,2.31-.22,3.32-.67,1.01-.45,1.88-1.08,2.61-1.89.73-.81,1.29-1.74,1.69-2.79.4-1.05.59-2.17.59-3.36s-.2-2.28-.59-3.33c-.4-1.05-.96-1.98-1.69-2.79-.73-.81-1.59-1.44-2.59-1.9s-2.11-.69-3.33-.69-2.34.23-3.33.69c-1,.46-1.86,1.09-2.59,1.9-.73.81-1.29,1.74-1.69,2.79-.4,1.05-.59,2.17-.59,3.33s.2,2.31.59,3.36c.4,1.05.96,1.98,1.69,2.79.73.81,1.6,1.44,2.61,1.89,1.01.45,2.12.67,3.32.67Z"/><path d="M69.93,24.84V4.72h1.76v18.5h9.05v1.62h-10.8Z"/><path d="M82.25,24.84V4.72h12.69v1.62h-10.94v7.59h10.4v1.62h-10.4v7.67h10.94v1.62h-12.69Z"/><path d="M96.75,24.84V4.72h1.49l12.18,17.47h-.57V4.72h1.75v20.12h-1.48l-12.23-17.58h.62v17.58h-1.76Z"/><path d="M123.64,25.16c-1.39,0-2.66-.26-3.83-.77-1.17-.51-2.19-1.24-3.06-2.17-.87-.94-1.55-2.03-2.03-3.29-.48-1.26-.72-2.65-.72-4.16s.24-2.88.72-4.14c.48-1.27,1.15-2.37,2.03-3.29.87-.93,1.89-1.65,3.06-2.16,1.17-.51,2.45-.77,3.83-.77s2.56.24,3.65.73,1.99,1.11,2.73,1.86c.74.76,1.27,1.54,1.59,2.35l-1.65.73c-.54-1.21-1.35-2.18-2.44-2.92s-2.38-1.11-3.87-1.11-2.89.37-4.09,1.11-2.13,1.76-2.79,3.06c-.67,1.31-1,2.82-1,4.55s.33,3.25,1,4.56c.67,1.31,1.6,2.34,2.79,3.07,1.2.73,2.56,1.09,4.09,1.09s2.79-.36,3.87-1.09c1.09-.73,1.9-1.7,2.44-2.9l1.65.73c-.32.79-.86,1.57-1.59,2.32-.74.76-1.65,1.38-2.73,1.88-1.08.5-2.29.74-3.65.74Z"/><path d="M138.5,24.84v-9.18l-7.1-10.94h1.97l6.4,9.75h-.78l6.37-9.75h1.97l-7.07,10.94v9.18h-1.75Z"/></svg>